<svg width="33" height="33" viewBox="0 0 33 33" fill="none" xmlns="http://www.w3.org/2000/svg">
<path d="M30.5014 16.4843C30.5014 15.3332 30.4061 14.4932 30.1998 13.6221H16.7871V18.8176H24.6601C24.5014 20.1087 23.6442 22.0532 21.7394 23.3598L21.7127 23.5337L25.9536 26.7533L26.2474 26.7821C28.9458 24.3398 30.5014 20.7465 30.5014 16.4843Z" fill="#4285F4"/>
<path d="M16.7863 30.1734C20.6434 30.1734 23.8814 28.9288 26.2466 26.7822L21.7386 23.3599C20.5323 24.1843 18.9132 24.7599 16.7863 24.7599C13.0086 24.7599 9.80225 22.3177 8.65929 18.9421L8.49176 18.9561L4.08208 22.3006L4.02441 22.4577C6.37359 27.031 11.199 30.1734 16.7863 30.1734Z" fill="#34A853"/>
<path d="M8.65964 18.9423C8.35806 18.0712 8.18352 17.1378 8.18352 16.1734C8.18352 15.2089 8.35806 14.2756 8.64377 13.4045L8.63578 13.219L4.17083 9.8208L4.02475 9.8889C3.05654 11.7867 2.50098 13.9179 2.50098 16.1734C2.50098 18.4289 3.05654 20.56 4.02475 22.4578L8.65964 18.9423Z" fill="#FBBC05"/>
<path d="M16.7864 7.58664C19.4689 7.58664 21.2784 8.72219 22.3102 9.67114L26.3419 5.81334C23.8658 3.55779 20.6435 2.17334 16.7864 2.17334C11.199 2.17334 6.3736 5.31554 4.02441 9.88883L8.64345 13.4044C9.80229 10.0289 13.0086 7.58664 16.7864 7.58664Z" fill="#EB4335"/>
</svg>
